HIERARCHY
ROOT root
{
	OFFSET 0.000000 0.000000 0.000000
	CHANNELS 6 Xposition Yposition Zposition Zrotation Yrotation Xrotation
	JOINT lhip
	{
		OFFSET 0.058581 -0.082280 -0.017664
		CHANNELS 3 Zrotation Yrotation Xrotation
		JOINT lknee
		{
			OFFSET 0.043451 -0.386469 0.008037
			CHANNELS 3 Zrotation Yrotation Xrotation
			JOINT lankle
			{
				OFFSET -0.014790 -0.426874 -0.037428
				CHANNELS 3 Zrotation Yrotation Xrotation
				JOINT ltoe
				{
					OFFSET 0.041054 -0.060286 0.122042
					CHANNELS 3 Zrotation Yrotation Xrotation
					End Site
					{
						OFFSET 0.000000 0.000000 0.000000
					}
				}
			}
		}
	}
	JOINT rhip
	{
		OFFSET -0.060310 -0.090513 -0.013543
		CHANNELS 3 Zrotation Yrotation Xrotation
		JOINT rknee
		{
			OFFSET -0.043257 -0.383688 -0.004843
			CHANNELS 3 Zrotation Yrotation Xrotation
			JOINT rankle
			{
				OFFSET 0.019056 -0.420046 -0.034562
				CHANNELS 3 Zrotation Yrotation Xrotation
				JOINT rtoe
				{
					OFFSET -0.034840 -0.062106 0.130323
					CHANNELS 3 Zrotation Yrotation Xrotation
					End Site
					{
						OFFSET 0.000000 0.000000 0.000000
					}
				}
			}
		}
	}
	JOINT lowerback
	{
		OFFSET 0.004439 0.124404 -0.038385
		CHANNELS 3 Zrotation Yrotation Xrotation
		JOINT upperback
		{
			OFFSET 0.004488 0.137956 0.026820
			CHANNELS 3 Zrotation Yrotation Xrotation
			JOINT chest
			{
				OFFSET -0.002265 0.056032 0.002855
				CHANNELS 3 Zrotation Yrotation Xrotation
				JOINT lowerneck
				{
					OFFSET -0.013390 0.211636 -0.033468
					CHANNELS 3 Zrotation Yrotation Xrotation
					JOINT upperneck
					{
						OFFSET 0.010113 0.088937 0.050410
						CHANNELS 3 Zrotation Yrotation Xrotation
						End Site
						{
							OFFSET 0.000000 0.000000 0.000000
						}
					}
				}
				JOINT lclavicle
				{
					OFFSET 0.071702 0.114000 -0.018898
					CHANNELS 3 Zrotation Yrotation Xrotation
					JOINT lshoulder
					{
						OFFSET 0.122921 0.045205 -0.019046
						CHANNELS 3 Zrotation Yrotation Xrotation
						JOINT lelbow
						{
							OFFSET 0.255332 -0.015649 -0.022946
							CHANNELS 3 Zrotation Yrotation Xrotation
							JOINT lwrist
							{
								OFFSET 0.265709 0.012698 -0.007375
								CHANNELS 3 Zrotation Yrotation Xrotation
								End Site
								{
									OFFSET 0.000000 0.000000 0.000000
								}
							}
						}
					}
				}
				JOINT rclavicle
				{
					OFFSET -0.082954 0.112472 -0.023707
					CHANNELS 3 Zrotation Yrotation Xrotation
					JOINT rshoulder
					{
						OFFSET -0.113228 0.046853 -0.008472
						CHANNELS 3 Zrotation Yrotation Xrotation
						JOINT relbow
						{
							OFFSET -0.260127 -0.014369 -0.031269
							CHANNELS 3 Zrotation Yrotation Xrotation
							JOINT rwrist
							{
								OFFSET -0.269108 0.006794 -0.006027
								CHANNELS 3 Zrotation Yrotation Xrotation
								End Site
								{
									OFFSET 0.000000 0.000000 0.000000
								}
							}
						}
					}
				}
			}
		}
	}
}
MOTION
Frames: 13
Frame Time: 0.033333
-1.496441 1.166777 1.034915 57.339688 2.655574 82.515838 3.560095 5.641498 7.320166 -4.855174 0.699570 9.725380 2.896028 12.162055 -12.918890 0.000000 -0.000000 0.000000 -1.310149 -4.793876 2.061955 1.928840 -3.409457 13.927804 2.219726 -6.682320 -11.947938 0.000000 -0.000000 0.000000 -0.178971 -0.263939 6.756607 0.255396 -3.013325 2.513757 -1.639707 -2.061083 4.083478 2.996465 -6.382050 -0.359315 3.488143 -10.654076 9.471796 -21.667720 2.454392 2.058116 -56.891236 -7.183481 9.190623 2.795523 -32.481773 15.688314 -7.071387 -7.672320 -5.394588 21.165414 -0.225271 0.608135 58.311323 2.391006 13.664199 -7.188097 36.141466 6.945782 8.986219 3.583396 -5.611788 
-1.495728 1.164454 1.034964 57.712476 2.556255 82.378306 3.534515 5.711360 7.192307 -4.893054 0.977198 10.346311 3.001988 12.319901 -12.810402 0.000000 -0.000000 0.000000 -1.404771 -4.993137 2.557238 2.001767 -3.539084 13.656745 2.034136 -6.663432 -12.072552 0.000000 -0.000000 0.000000 -0.121072 -0.182631 6.792772 0.224850 -3.160434 2.513576 -1.658042 -2.097456 4.154647 2.929621 -6.615725 -0.276300 3.526339 -10.687856 9.346979 -21.655599 2.392332 1.910710 -57.603190 -6.713239 9.220960 2.992750 -29.886566 16.073539 -7.505739 -7.458230 -5.131387 21.111279 -0.259819 0.655993 58.553053 2.187661 13.598303 -7.122885 35.008209 7.338219 9.132904 3.439905 -5.766376 
-1.495231 1.162376 1.034847 58.027163 2.465647 82.305920 3.456003 5.748350 7.210988 -4.880871 1.135362 10.570776 3.149691 12.514664 -12.761351 0.000000 -0.000000 0.000000 -1.467339 -5.097092 2.844825 2.075241 -3.626085 13.563868 1.874021 -6.733229 -12.232573 0.000000 -0.000000 0.000000 -0.049147 -0.109880 6.719902 0.185706 -3.212812 2.625028 -1.676473 -2.141761 4.156848 2.858833 -6.777668 -0.137328 3.533131 -10.709960 9.121635 -21.777908 2.402260 1.868884 -58.027382 -6.322073 9.090529 2.998034 -27.456759 16.345170 -8.622793 -7.088582 -4.873286 21.106376 -0.337963 0.735704 58.677905 2.092270 13.463343 -6.978822 33.845786 7.556283 9.460574 3.255160 -5.681450 
-1.495023 1.160036 1.034475 58.285389 2.403996 82.287803 3.329135 5.774520 7.604033 -4.737621 1.057973 10.041699 3.450810 12.803732 -12.722299 0.000000 -0.000000 0.000000 -1.408490 -5.101177 2.911701 2.091886 -3.667816 13.709970 1.626620 -6.905868 -12.445840 0.000000 -0.000000 0.000000 0.034818 -0.101548 6.594667 0.161167 -3.130214 2.770402 -1.685305 -2.121976 4.069260 2.845499 -6.966005 0.112802 3.479067 -10.722535 8.814567 -21.896858 2.504244 1.968304 -58.367627 -5.803533 8.822376 2.725915 -24.887854 16.918467 -11.225392 -6.655292 -5.198427 21.038644 -0.393445 0.962417 58.836776 2.019207 13.263366 -6.901042 32.506339 7.776093 10.210397 3.003670 -5.661416 
-1.495111 1.158790 1.034097 58.434885 2.410530 82.263553 3.279591 5.830471 7.965381 -4.550668 0.876003 9.460475 3.509996 12.924844 -12.770671 0.000000 -0.000000 0.000000 -1.295481 -5.084181 2.898975 2.028110 -3.745718 13.890729 1.541768 -6.977199 -12.622986 0.000000 -0.000000 0.000000 0.122896 -0.186010 6.528932 0.140520 -3.096921 2.843072 -1.715161 -2.061366 4.149435 2.891110 -6.979810 0.057401 3.434381 -10.791866 8.794694 -21.994426 2.686581 1.965221 -58.491899 -5.541176 8.712399 2.966828 -23.996077 16.581900 -10.806564 -6.557242 -4.793518 21.023984 -0.356096 0.981787 58.872842 1.992916 13.230007 -6.836751 31.735097 7.779627 10.146920 2.906185 -5.504080 
-1.495300 1.157256 1.033449 58.621722 2.449301 82.294156 3.209120 5.930153 8.499889 -4.216247 0.677370 8.371264 3.612849 13.081737 -12.774009 0.000000 -0.000000 0.000000 -1.110091 -5.072796 2.798394 1.939786 -3.834275 14.130297 1.476365 -7.082735 -12.829727 0.000000 -0.000000 0.000000 0.210255 -0.292472 6.420587 0.151228 -3.037643 2.900011 -1.699990 -2.025576 4.263612 2.938445 -6.989275 0.020874 3.345713 -10.844006 8.774785 -22.115282 3.028708 1.936604 -58.629674 -5.153771 8.637320 3.290189 -23.234777 16.081078 -9.759496 -6.523728 -4.283607 21.026591 -0.352185 0.955181 58.789226 1.975964 13.233577 -6.758798 30.810573 7.716466 9.934467 2.810705 -5.273069 
-1.495366 1.155708 1.032813 58.801880 2.493190 82.353680 3.127570 6.070842 9.198936 -3.840899 0.475428 6.896213 3.688098 13.210811 -12.637864 0.000000 -0.000000 0.000000 -0.923797 -4.989340 2.734096 1.883001 -3.927994 14.246324 1.452276 -7.243454 -12.975705 0.000000 -0.000000 0.000000 0.233481 -0.442689 6.245659 0.174199 -2.923955 2.996795 -1.638130 -2.005143 4.351033 3.035662 -6.998812 0.051196 3.257246 -10.876809 8.696772 -22.196127 3.396889 1.946174 -58.704157 -4.821244 8.540788 3.426556 -22.772482 15.748375 -9.331414 -6.543127 -4.056320 21.045050 -0.393462 0.953489 58.670191 2.020764 13.199209 -6.744899 30.043415 7.545921 9.843771 2.712171 -5.066623 
-1.495435 1.154298 1.032439 58.893217 2.502840 82.460665 3.080811 6.279414 9.907822 -3.531879 0.195718 5.308259 3.679148 13.222923 -12.355843 0.000000 -0.000000 0.000000 -0.809090 -5.044580 2.605606 1.830713 -3.944122 14.347697 1.489760 -7.261783 -13.064099 0.000000 -0.000000 0.000000 0.210496 -0.539857 5.967242 0.193229 -2.843519 3.191537 -1.609551 -1.935856 4.459244 3.213047 -6.909669 -0.005385 3.230464 -10.965173 8.620305 -22.198427 3.786806 1.904291 -58.783611 -4.570184 8.503153 3.548365 -22.636435 15.460345 -8.777017 -6.620015 -3.843195 21.160877 -0.476931 0.870632 58.508507 2.094494 13.164098 -6.756074 29.457632 7.342955 9.728215 2.647062 -4.855930 
-1.495837 1.153025 1.032415 58.977805 2.488385 82.659294 3.135711 6.416025 10.418481 -3.422557 -0.036750 3.891020 3.588805 13.083092 -11.957758 0.000000 -0.000000 0.000000 -0.706054 -5.114445 2.395718 1.783781 -3.962561 14.346684 1.511399 -7.285565 -13.042806 0.000000 -0.000000 0.000000 0.098803 -0.573962 5.682443 0.247436 -2.759799 3.284987 -1.536428 -1.923768 4.500303 3.312644 -6.870077 0.069173 3.164779 -11.054262 8.630165 -22.167373 4.150039 1.916631 -58.854906 -4.378305 8.506433 3.565816 -22.630248 15.393915 -8.660970 -6.746606 -3.894260 21.216288 -0.613365 0.838057 58.434048 2.162168 13.148489 -6.815066 29.070527 7.192468 9.686348 2.609783 -4.791504 
-1.496520 1.151763 1.032627 59.141910 2.472297 82.934833 3.282350 6.482448 10.847379 -3.447892 -0.233847 2.441774 3.409144 12.808678 -11.444974 0.000000 -0.000000 0.000000 -0.598478 -5.144002 2.213470 1.780370 -4.091870 14.132102 1.495900 -7.347581 -12.926787 0.000000 -0.000000 0.000000 -0.021602 -0.629500 5.431681 0.306910 -2.670219 3.248443 -1.441112 -1.988090 4.434140 3.277657 -6.916192 0.356364 3.069187 -11.099519 8.707986 -22.144010 4.518210 2.030177 -58.873620 -4.202849 8.487932 3.514356 -22.862798 15.430559 -8.837300 -6.854815 -4.163381 21.182226 -0.780189 0.914769 58.441403 2.198062 13.132105 -6.870704 28.939676 7.100299 9.711486 2.607008 -4.842107 
-1.496918 1.151057 1.032741 59.281347 2.454021 83.054474 3.385913 6.573590 11.162791 -3.466622 -0.378414 1.535605 3.253076 12.586278 -11.117554 0.000000 -0.000000 0.000000 -0.585189 -5.181623 2.207599 1.818447 -4.225497 13.925312 1.512853 -7.361525 -12.853365 0.000000 -0.000000 0.000000 -0.006594 -0.735781 5.258405 0.294262 -2.719766 3.362351 -1.515639 -1.925220 4.455048 3.315889 -6.841472 0.339400 3.047820 -11.163624 8.765224 -22.080107 4.739171 2.041544 -58.842329 -4.215915 8.459052 3.483381 -23.293500 15.408279 -8.856510 -6.909057 -4.329156 21.221088 -0.847188 0.884415 58.448523 2.248572 13.140272 -6.874908 29.113259 7.068758 9.729237 2.650509 -4.852838 
-1.497394 1.150586 1.032766 59.452288 2.436489 83.113921 3.480696 6.665447 11.402519 -3.483115 -0.500344 0.853392 3.101446 12.374581 -10.835177 0.000000 -0.000000 0.000000 -0.578010 -5.158541 2.244412 1.849612 -4.404894 13.740510 1.519899 -7.417738 -12.788016 0.000000 -0.000000 0.000000 0.022242 -0.888101 5.196867 0.277047 -2.808604 3.471891 -1.605377 -1.843956 4.481748 3.305674 -6.765787 0.279987 3.006215 -11.225897 8.800809 -22.052287 4.822530 2.021092 -58.790676 -4.290471 8.449277 3.519182 -23.821788 15.294924 -8.758705 -7.014243 -4.486201 21.251712 -0.815919 0.872436 58.453813 2.310707 13.173356 -6.881771 29.468521 7.035912 9.684351 2.714137 -4.870429 
-1.498031 1.150290 1.032858 59.529824 2.411406 83.207724 3.517876 6.750492 11.471841 -3.475013 -0.536002 0.407674 3.012304 12.220534 -10.609516 0.000000 -0.000000 0.000000 -0.578825 -5.256837 2.121996 1.843607 -4.476831 13.716662 1.555550 -7.362857 -12.718740 0.000000 -0.000000 0.000000 0.023227 -0.905509 5.237382 0.266028 -2.813877 3.454373 -1.610338 -1.848003 4.435484 3.229968 -6.777400 0.284780 3.007992 -11.245795 8.780225 -22.057522 4.796268 1.989204 -58.769345 -4.387500 8.472183 3.558077 -24.344310 15.192386 -8.586385 -7.058639 -4.577461 21.229965 -0.804254 0.870899 58.457930 2.319756 13.201562 -6.868619 29.907026 7.037897 9.616218 2.784181 -4.875074 
